<svg width="24" height="24" viewBox="0 0 24 24" fill="none" xmlns="http://www.w3.org/2000/svg">
<mask id="mask0_291_878" style="mask-type:alpha" maskUnits="userSpaceOnUse" x="0" y="0" width="24" height="24">
<rect width="24" height="24" fill="#D9D9D9"/>
</mask>
<g mask="url(#mask0_291_878)">
<path d="M10.6749 21.75C10.3083 21.75 9.98953 21.6271 9.7187 21.3812C9.44786 21.1354 9.28745 20.8333 9.23745 20.475L8.98745 18.6375C8.77078 18.5458 8.55203 18.4396 8.3312 18.3187C8.11036 18.1979 7.90828 18.0708 7.72495 17.9375L6.01245 18.6375C5.67078 18.7875 5.32903 18.8012 4.9872 18.6787C4.64536 18.5561 4.37878 18.3381 4.18745 18.025L2.84995 15.7125C2.65828 15.3958 2.60203 15.0583 2.6812 14.7C2.76036 14.3416 2.94578 14.0458 3.23745 13.8125L4.73745 12.675C4.72078 12.567 4.71245 12.4629 4.71245 12.3627V12C4.71245 11.9 4.71453 11.7916 4.7187 11.675C4.72286 11.5583 4.73328 11.425 4.74995 11.275L3.26245 10.175C2.97078 9.94298 2.78328 9.64956 2.69995 9.29472C2.61661 8.93989 2.67078 8.59998 2.86245 8.27498L4.18745 5.97498C4.38061 5.66181 4.64978 5.44389 4.99495 5.32122C5.33995 5.19872 5.68328 5.21248 6.02495 5.36248L7.76245 6.08748C7.92911 5.95414 8.11453 5.82914 8.3187 5.71248C8.52286 5.59581 8.74578 5.48748 8.98745 5.38748L9.23745 3.49998C9.28745 3.14164 9.44995 2.83956 9.72495 2.59373C9.99995 2.34789 10.3208 2.22498 10.6874 2.22498H13.3249C13.6916 2.22498 14.0104 2.34789 14.2812 2.59373C14.552 2.83956 14.7124 3.14164 14.7624 3.49998L15.0079 5.34748C15.2443 5.44081 15.4604 5.54789 15.6562 5.66873C15.852 5.78956 16.0416 5.92914 16.2249 6.08748L17.9874 5.36248C18.3291 5.21248 18.6709 5.19872 19.0127 5.32122C19.3545 5.44389 19.6211 5.66181 19.8124 5.97498L21.1374 8.27498C21.3291 8.59164 21.3833 8.92898 21.2999 9.28698C21.2166 9.64498 21.0291 9.94098 20.7374 10.175L19.1874 11.325C19.2041 11.4416 19.2124 11.5479 19.2124 11.6437V12.3667C19.2124 12.4697 19.1999 12.5766 19.1749 12.6875L20.6999 13.8125C20.9916 14.0465 21.1791 14.3425 21.2624 14.7005C21.3458 15.0585 21.2916 15.3958 21.0999 15.7125L19.7624 18.025C19.5693 18.3381 19.3001 18.5561 18.9549 18.6787C18.6099 18.8012 18.2666 18.7875 17.9249 18.6375L16.2249 17.9125C16.0666 18.0375 15.8937 18.1541 15.7062 18.2625C15.5187 18.3708 15.2874 18.4916 15.0124 18.625L14.7624 20.475C14.7124 20.8333 14.552 21.1354 14.2812 21.3812C14.0104 21.6271 13.6916 21.75 13.3249 21.75H10.6749ZM11.0072 19.875H12.9499L13.3124 17.2125C13.8124 17.0791 14.2708 16.8896 14.6874 16.6437C15.1041 16.3979 15.4916 16.0916 15.8499 15.725L18.3374 16.775L19.2999 15.1L17.1249 13.475C17.1999 13.2416 17.2541 13.0013 17.2874 12.754C17.3208 12.5066 17.3374 12.2553 17.3374 12C17.3374 11.7416 17.3229 11.4937 17.2937 11.2562C17.2645 11.0187 17.2083 10.775 17.1249 10.525L19.2999 8.87498L18.3624 7.19998L15.8374 8.27498C15.5124 7.92498 15.1291 7.62081 14.6874 7.36248C14.2458 7.10414 13.7874 6.91248 13.3124 6.78748L12.9892 4.09998H11.0249L10.6874 6.77498C10.1541 6.91664 9.68745 7.10206 9.28745 7.33123C8.88745 7.56039 8.49161 7.86664 8.09995 8.24998L5.63745 7.19998L4.67495 8.87498L6.81245 10.4625C6.72911 10.7291 6.67078 10.9833 6.63745 11.225C6.60411 11.4666 6.58745 11.7206 6.58745 11.9867C6.58745 12.2372 6.60203 12.4833 6.6312 12.725C6.66036 12.9666 6.71661 13.225 6.79995 13.5L4.67495 15.1L5.63945 16.775L8.08745 15.725C8.47911 16.1166 8.88536 16.4333 9.3062 16.675C9.72703 16.9166 10.1874 17.1 10.6874 17.225L11.0072 19.875ZM11.9932 15.375C12.9227 15.375 13.7166 15.0454 14.3749 14.3862C15.0333 13.7271 15.3624 12.9312 15.3624 11.9987C15.3624 11.0662 15.0329 10.2708 14.3739 9.61248C13.7151 8.95414 12.9196 8.62498 11.9874 8.62498C11.0458 8.62498 10.2479 8.95456 9.5937 9.61373C8.93953 10.2729 8.61245 11.0687 8.61245 12.0012C8.61245 12.9337 8.93953 13.7291 9.5937 14.3875C10.2479 15.0458 11.0477 15.375 11.9932 15.375Z" fill="#2F2F2F"/>
</g>
</svg>
