<svg width="40" height="40" viewBox="0 0 40 40" fill="none" xmlns="http://www.w3.org/2000/svg">
<mask id="mask0_291_884" style="mask-type:alpha" maskUnits="userSpaceOnUse" x="0" y="0" width="40" height="40">
<rect width="40" height="40" fill="#D9D9D9"/>
</mask>
<g mask="url(#mask0_291_884)">
<path d="M18.0416 36.6667C17.2916 36.6667 16.6458 36.4167 16.1041 35.9167C15.5625 35.4167 15.2361 34.8056 15.125 34.0834L14.75 31.3334C14.3889 31.1945 14.0486 31.0278 13.7291 30.8334C13.4097 30.6389 13.0972 30.4306 12.7916 30.2084L10.2083 31.2917C9.51386 31.5973 8.81941 31.625 8.12497 31.375C7.43052 31.125 6.88886 30.6806 6.49997 30.0417L4.54163 26.625C4.15275 25.9862 4.04163 25.3056 4.2083 24.5834C4.37497 23.8612 4.74997 23.2639 5.3333 22.7917L7.54163 21.125C7.51386 20.9306 7.49997 20.7431 7.49997 20.5625V19.4375C7.49997 19.257 7.51386 19.0695 7.54163 18.875L5.3333 17.2084C4.74997 16.7362 4.37497 16.1389 4.2083 15.4167C4.04163 14.6945 4.15275 14.0139 4.54163 13.375L6.49997 9.95837C6.88886 9.31949 7.43052 8.87504 8.12497 8.62504C8.81941 8.37504 9.51386 8.40282 10.2083 8.70837L12.7916 9.79171C13.0972 9.56948 13.4166 9.36115 13.75 9.16671C14.0833 8.97226 14.4166 8.8056 14.75 8.66671L15.125 5.91671C15.2361 5.19449 15.5625 4.58337 16.1041 4.08337C16.6458 3.58337 17.2916 3.33337 18.0416 3.33337H21.9583C22.7083 3.33337 23.3541 3.58337 23.8958 4.08337C24.4375 4.58337 24.7639 5.19449 24.875 5.91671L25.25 8.66671C25.6111 8.8056 25.9514 8.97226 26.2708 9.16671C26.5902 9.36115 26.9027 9.56948 27.2083 9.79171L29.7916 8.70837C30.4861 8.40282 31.1805 8.37504 31.875 8.62504C32.5694 8.87504 33.1111 9.31949 33.5 9.95837L35.4583 13.375C35.8472 14.0139 35.9583 14.6945 35.7916 15.4167C35.625 16.1389 35.25 16.7362 34.6666 17.2084L32.4583 18.875C32.4861 19.0695 32.5 19.257 32.5 19.4375V20.5625C32.5 20.7431 32.4722 20.9306 32.4166 21.125L34.625 22.7917C35.2083 23.2639 35.5833 23.8612 35.75 24.5834C35.9166 25.3056 35.8055 25.9862 35.4166 26.625L33.4166 30.0417C33.0277 30.6806 32.4861 31.125 31.7916 31.375C31.0972 31.625 30.4027 31.5973 29.7083 31.2917L27.2083 30.2084C26.9027 30.4306 26.5833 30.6389 26.25 30.8334C25.9166 31.0278 25.5833 31.1945 25.25 31.3334L24.875 34.0834C24.7639 34.8056 24.4375 35.4167 23.8958 35.9167C23.3541 36.4167 22.7083 36.6667 21.9583 36.6667H18.0416ZM20.0833 25.8334C21.6944 25.8334 23.0694 25.2639 24.2083 24.125C25.3472 22.9862 25.9166 21.6112 25.9166 20C25.9166 18.3889 25.3472 17.0139 24.2083 15.875C23.0694 14.7362 21.6944 14.1667 20.0833 14.1667C18.4444 14.1667 17.0625 14.7362 15.9375 15.875C14.8125 17.0139 14.25 18.3889 14.25 20C14.25 21.6112 14.8125 22.9862 15.9375 24.125C17.0625 25.2639 18.4444 25.8334 20.0833 25.8334Z" fill="#F2FAFE"/>
</g>
</svg>
