<svg width="40" height="40" viewBox="0 0 40 40" fill="none" xmlns="http://www.w3.org/2000/svg">
<mask id="mask0_291_887" style="mask-type:alpha" maskUnits="userSpaceOnUse" x="0" y="0" width="40" height="40">
<rect width="40" height="40" fill="#D9D9D9"/>
</mask>
<g mask="url(#mask0_291_887)">
<path d="M20.0002 36.1666C19.0975 36.1666 18.3301 35.8506 17.6982 35.2187C17.0662 34.5867 16.7502 33.8194 16.7502 32.9166H23.2502C23.2502 33.8194 22.9343 34.5867 22.3023 35.2187C21.6704 35.8506 20.903 36.1666 20.0002 36.1666ZM8.50024 31.3541C8.06969 31.3541 7.70163 31.2013 7.39608 30.8958C7.09052 30.5902 6.93774 30.2221 6.93774 29.7916C6.93774 29.361 7.09052 28.993 7.39608 28.6874C7.70163 28.3819 8.06969 28.2291 8.50024 28.2291H10.0627V16.9374C10.0627 14.6319 10.7607 12.5833 12.1565 10.7916C13.5523 8.99992 15.3614 7.81936 17.5836 7.24992V6.16659C17.5836 5.50103 17.818 4.93534 18.2869 4.4695C18.7558 4.00367 19.3252 3.77075 19.9952 3.77075C20.6652 3.77075 21.2364 4.00367 21.7086 4.4695C22.1808 4.93534 22.4169 5.50103 22.4169 6.16659V6.45825C22.0975 7.05547 21.8614 7.67575 21.7086 8.31908C21.5558 8.9627 21.4933 9.6202 21.5211 10.2916C21.2711 10.236 21.0211 10.1944 20.7711 10.1666C20.5211 10.1388 20.2641 10.1249 20.0002 10.1249C18.1269 10.1249 16.5232 10.792 15.189 12.1262C13.8548 13.4603 13.1877 15.0641 13.1877 16.9374V28.2291H26.8127V17.6458C27.2989 17.8263 27.8093 17.9583 28.344 18.0416C28.8787 18.1249 29.41 18.1527 29.9377 18.1249V28.2291H31.5002C31.9308 28.2291 32.2989 28.3819 32.6044 28.6874C32.91 28.993 33.0627 29.361 33.0627 29.7916C33.0627 30.2221 32.91 30.5902 32.6044 30.8958C32.2989 31.2013 31.9308 31.3541 31.5002 31.3541H8.50024ZM29.5407 15.0208C28.1804 15.0208 27.0245 14.5446 26.0732 13.5924C25.1218 12.6402 24.6461 11.4839 24.6461 10.1237C24.6461 8.76339 25.1222 7.60756 26.0744 6.65617C27.0266 5.70478 28.1829 5.22909 29.5432 5.22909C30.9034 5.22909 32.0593 5.7052 33.0107 6.65742C33.962 7.60964 34.4377 8.76589 34.4377 10.1262C34.4377 11.4864 33.9616 12.6423 33.0094 13.5937C32.0572 14.5451 30.9009 15.0208 29.5407 15.0208Z" fill="#F2FAFE"/>
</g>
</svg>
