<svg width="24" height="24" viewBox="0 0 24 24" fill="none" xmlns="http://www.w3.org/2000/svg">
<mask id="mask0_291_890" style="mask-type:alpha" maskUnits="userSpaceOnUse" x="0" y="0" width="24" height="24">
<rect width="24" height="24" fill="#D9D9D9"/>
</mask>
<g mask="url(#mask0_291_890)">
<path d="M5.7334 19.2668H9.1669V13.9168C9.1669 13.6944 9.24398 13.5062 9.39815 13.352C9.55231 13.1979 9.74048 13.1208 9.96265 13.1208H14.0459C14.2617 13.1208 14.447 13.1979 14.6016 13.352C14.7561 13.5062 14.8334 13.6944 14.8334 13.9168V19.2668H18.2669V9.84727L12.0001 5.15002L5.7334 9.84727V19.2668ZM4.15015 19.2668V9.85002C4.15015 9.59619 4.2044 9.35869 4.3129 9.13752C4.4214 8.91636 4.57823 8.73161 4.7834 8.58327L11.0501 3.88327C11.3321 3.67227 11.6485 3.56677 11.9991 3.56677C12.3498 3.56677 12.6668 3.67227 12.9501 3.88327L19.2169 8.58327C19.4221 8.73161 19.5789 8.91636 19.6874 9.13752C19.7959 9.35869 19.8501 9.59619 19.8501 9.85002V19.2668C19.8501 19.7021 19.6951 20.0749 19.3851 20.385C19.075 20.695 18.7022 20.85 18.2669 20.85H14.0459C13.8237 20.85 13.6356 20.7729 13.4814 20.6188C13.3272 20.4646 13.2501 20.2764 13.2501 20.0543V14.7043H10.7501V20.0543C10.7501 20.2764 10.673 20.4646 10.5186 20.6188C10.3641 20.7729 10.1791 20.85 9.96365 20.85H5.7299C5.29723 20.85 4.92573 20.695 4.6154 20.385C4.30523 20.0749 4.15015 19.7021 4.15015 19.2668Z" fill="#2F2F2F"/>
</g>
</svg>
