<svg width="40" height="40" viewBox="0 0 40 40" fill="none" xmlns="http://www.w3.org/2000/svg">
<mask id="mask0_331_702" style="mask-type:alpha" maskUnits="userSpaceOnUse" x="0" y="0" width="40" height="40">
<rect width="40" height="40" fill="#D9D9D9"/>
</mask>
<g mask="url(#mask0_331_702)">
<path d="M6.66669 32.2221V16.3887C6.66669 15.949 6.76502 15.5324 6.96169 15.1387C7.15863 14.7454 7.43071 14.4214 7.77794 14.1667L18.3334 6.25C18.8181 5.87972 19.3721 5.69458 19.9954 5.69458C20.6188 5.69458 21.1759 5.87972 21.6667 6.25L32.2221 14.1667C32.5693 14.4214 32.8414 14.7454 33.0384 15.1387C33.235 15.5324 33.3334 15.949 33.3334 16.3887V32.2221C33.3334 32.986 33.0614 33.64 32.5175 34.1842C31.9734 34.7281 31.3193 35 30.5554 35H24.7221C24.3288 35 23.9989 34.8669 23.7325 34.6008C23.4664 34.3344 23.3334 34.0046 23.3334 33.6112V24.7221C23.3334 24.3287 23.2003 23.9989 22.9342 23.7325C22.6678 23.4664 22.3379 23.3333 21.9446 23.3333H18.0554C17.6621 23.3333 17.3322 23.4664 17.0659 23.7325C16.7997 23.9989 16.6667 24.3287 16.6667 24.7221V33.6112C16.6667 34.0046 16.5336 34.3344 16.2675 34.6008C16.0011 34.8669 15.6713 35 15.2779 35H9.4446C8.68071 35 8.02669 34.7281 7.48252 34.1842C6.93863 33.64 6.66669 32.986 6.66669 32.2221Z" fill="white"/>
</g>
</svg>
