<svg width="24" height="24" viewBox="0 0 24 24" fill="none" xmlns="http://www.w3.org/2000/svg">
<mask id="mask0_410_8" style="mask-type:alpha" maskUnits="userSpaceOnUse" x="0" y="0" width="24" height="24">
<rect width="24" height="24" fill="#D9D9D9"/>
</mask>
<g mask="url(#mask0_410_8)">
<path d="M4 19.3332V9.83325C4 9.56942 4.059 9.31942 4.177 9.08325C4.29517 8.84725 4.45842 8.65283 4.66675 8.5L11 3.75C11.2908 3.52783 11.6232 3.41675 11.9972 3.41675C12.3712 3.41675 12.7055 3.52783 13 3.75L19.3332 8.5C19.5416 8.65283 19.7048 8.84725 19.823 9.08325C19.941 9.31942 20 9.56942 20 9.83325V19.3332C20 19.7916 19.8368 20.184 19.5105 20.5105C19.184 20.8368 18.7916 21 18.3333 21H14.8333C14.5973 21 14.3993 20.9202 14.2395 20.7605C14.0798 20.6007 14 20.4027 14 20.1667V14.8332C14 14.5972 13.9202 14.3993 13.7605 14.2395C13.6007 14.0798 13.4027 14 13.1667 14H10.8332C10.5972 14 10.3993 14.0798 10.2395 14.2395C10.0798 14.3993 10 14.5972 10 14.8332V20.1667C10 20.4027 9.92017 20.6007 9.7605 20.7605C9.60067 20.9202 9.40275 21 9.16675 21H5.66675C5.20842 21 4.816 20.8368 4.4895 20.5105C4.16317 20.184 4 19.7916 4 19.3332Z" fill="#2F2F2F"/>
</g>
</svg>
