<svg width="24" height="20" viewBox="0 0 24 20" fill="none" xmlns="http://www.w3.org/2000/svg">
<mask id="mask0_291_903" style="mask-type:alpha" maskUnits="userSpaceOnUse" x="0" y="0" width="24" height="20">
<rect y="20" width="20" height="24" transform="rotate(-90 0 20)" fill="#D9D9D9"/>
</mask>
<g mask="url(#mask0_291_903)">
<path d="M12.0048 11.9936L17.4311 6.13234C17.6157 5.93297 17.8311 5.83662 18.0771 5.84326C18.3232 5.84991 18.5386 5.95291 18.7231 6.15227C18.9077 6.35163 19 6.58422 19 6.85004C19 7.11586 18.9077 7.34844 18.7231 7.54781L13.0568 13.6882C12.9092 13.8476 12.743 13.9673 12.5585 14.047C12.3739 14.1268 12.1893 14.1666 12.0048 14.1666C11.8202 14.1666 11.6356 14.1268 11.4511 14.047C11.2665 13.9673 11.1004 13.8476 10.9527 13.6882L5.26793 7.54781C5.08335 7.34844 4.99415 7.11253 5.0003 6.84007C5.00645 6.56761 5.10181 6.3317 5.28638 6.13234C5.47095 5.93297 5.68629 5.83329 5.93238 5.83329C6.17848 5.83329 6.39381 5.93297 6.57838 6.13234L12.0048 11.9936Z" fill="#121212"/>
</g>
</svg>
