<svg width="14.091919" height="8.333374" viewBox="0 0 14.0919 8.33337" fill="none" xmlns="http://www.w3.org/2000/svg" xmlns:xlink="http://www.w3.org/1999/xlink">
	<desc>
			Created with Pixso.
	</desc>
	<defs/>
	<path id="arrow_back_ios" d="M7.05 6.16L12.51 0.29C12.69 0.09 12.91 0 13.16 0.01C13.41 0.01 13.62 0.11 13.81 0.31C13.99 0.51 14.09 0.75 14.09 1.01C14.09 1.28 13.99 1.51 13.81 1.71L8.1 7.85C7.96 8.01 7.79 8.13 7.6 8.21C7.42 8.29 7.23 8.33 7.05 8.33C6.86 8.33 6.67 8.29 6.49 8.21C6.3 8.13 6.14 8.01 5.99 7.85L0.26 1.71C0.08 1.51 -0.01 1.27 0 1C0 0.73 0.1 0.49 0.28 0.29C0.47 0.09 0.69 0 0.93 0C1.18 0 1.4 0.09 1.58 0.29L7.05 6.16Z" fill="#F2FAFE" fill-opacity="1.000000" fill-rule="nonzero"/>
</svg>
